<!DOCTYPE svg PUBLIC "-//W3C//DTD SVG 20010904//EN" "http://www.w3.org/TR/2001/REC-SVG-20010904/DTD/svg10.dtd">
<svg version="1.0" xmlns="http://www.w3.org/2000/svg" width="644px" height="164px" viewBox="0 0 6440 1640" preserveAspectRatio="xMidYMid meet">
<g id="layer101" fill="#000000" stroke="none">
 <path d="M3924 1547 c-74 -28 -106 -50 -167 -116 -157 -168 -150 -460 15 -625 159 -158 434 -167 606 -20 191 163 200 490 17 663 -30 29 -84 66 -122 83 -60 29 -78 32 -178 35 -96 3 -118 0 -171 -20z m296 -165 c126 -63 185 -236 126 -376 -40 -96 -147 -166 -255 -166 -88 0 -135 16 -191 67 -71 64 -95 119 -95 221 0 50 4 86 11 90 6 4 14 17 18 29 12 37 83 121 118 139 40 21 120 33 173 27 22 -2 65 -16 95 -31z"/>
 <path d="M4925 1558 c-78 -20 -96 -31 -153 -93 -92 -98 -132 -199 -132 -335 0 -96 31 -223 68 -275 39 -56 137 -127 207 -150 86 -29 230 -27 308 4 103 40 194 132 228 229 17 49 0 62 -76 62 -61 0 -64 -1 -83 -34 -22 -38 -92 -93 -129 -102 -13 -4 -23 -10 -23 -15 0 -15 -124 -10 -171 6 -52 19 -112 74 -142 130 -29 56 -35 185 -13 252 37 112 129 176 250 176 108 0 195 -48 227 -124 11 -28 13 -29 86 -29 90 0 97 10 59 87 -38 78 -105 145 -183 183 -61 30 -75 33 -177 36 -61 1 -129 -2 -151 -8z"/>
 <path d="M136 1545 c-8 -21 -8 -98 0 -119 5 -14 33 -16 209 -16 223 0 297 -9 332 -42 27 -26 31 -82 7 -116 -33 -48 -57 -52 -303 -52 -264 0 -255 4 -249 -93 l3 -52 225 -5 c234 -6 254 -9 284 -52 18 -26 21 -80 6 -109 -24 -43 -56 -49 -284 -49 -203 0 -216 -1 -226 -19 -15 -30 -13 -116 5 -131 10 -8 76 -11 247 -8 220 3 236 5 286 27 60 27 117 88 132 140 19 70 12 144 -19 204 l-29 55 29 28 c62 59 87 176 58 265 -16 48 -73 104 -133 131 -48 22 -64 23 -312 26 -235 3 -262 2 -268 -13z"/>
 <path d="M2797 1554 c-13 -13 -8 -439 5 -452 9 -9 75 -12 235 -12 178 0 230 -3 253 -15 90 -47 94 -160 7 -214 -32 -20 -48 -21 -259 -21 -161 0 -227 -3 -236 -12 -17 -17 -15 -123 2 -138 11 -8 79 -11 258 -8 230 3 246 4 295 27 110 49 171 158 161 286 -8 95 -55 169 -135 209 -18 9 -33 18 -33 21 0 2 43 70 96 151 114 175 114 178 2 182 l-75 3 -97 -156 -98 -156 -111 3 -112 3 -5 150 -5 150 -70 3 c-39 1 -74 0 -78 -4z"/>
 <path d="M1035 1537 c-3 -6 -4 -201 -3 -432 l3 -420 314 -3 c223 -2 318 1 327 9 19 15 19 122 1 138 -9 7 -96 12 -248 13 l-234 3 0 95 0 95 215 5 215 5 3 72 3 73 -218 2 -218 3 0 100 0 100 240 3 c176 2 241 6 247 15 9 14 11 99 2 121 -5 14 -43 16 -325 16 -247 0 -321 -3 -324 -13z"/>
 <path d="M1857 1544 c-4 -4 -7 -195 -7 -424 0 -353 2 -419 15 -430 10 -9 72 -11 232 -8 198 4 223 6 275 26 102 41 190 137 228 248 76 221 -13 465 -205 560 l-60 29 -235 3 c-130 2 -239 0 -243 -4z m468 -171 c93 -50 140 -136 140 -258 -1 -100 -25 -155 -97 -219 -59 -54 -76 -58 -233 -54 l-120 3 -3 265 c-1 146 0 271 3 278 4 11 32 13 138 10 111 -3 138 -7 172 -25z"/>
 <path d="M5616 1535 c-3 -9 -6 -198 -6 -419 0 -310 3 -406 13 -420 10 -14 25 -16 77 -14 l65 3 3 150 c1 83 4 156 7 164 3 8 51 -30 136 -110 72 -68 154 -143 182 -167 l50 -43 81 3 c78 3 81 4 84 28 2 21 -22 50 -137 164 l-140 139 92 131 c51 71 92 133 92 137 0 4 29 49 65 100 116 165 116 169 -4 169 -73 0 -83 -2 -95 -22 -8 -13 -74 -110 -149 -217 l-134 -193 -64 63 -64 63 -2 150 -3 151 -71 3 c-59 2 -73 0 -78 -13z"/>
 <path d="M2433 591 l-23 -39 83 -48 c123 -71 117 -62 117 -176 l0 -98 75 0 75 0 0 55 c0 30 2 55 5 55 8 0 424 -247 464 -276 34 -24 35 -24 55 -6 17 15 437 265 768 456 27 16 51 32 54 37 5 8 -32 79 -41 79 -2 0 -182 -106 -401 -235 -218 -130 -403 -234 -410 -231 -7 3 -184 107 -393 231 -210 124 -387 228 -394 230 -6 3 -22 -12 -34 -34z"/>
 </g>

</svg>